<?xml version="1.0" encoding="UTF-8"?>
<svg version="1.1" xmlns="http://www.w3.org/2000/svg" width="225" height="225">
<path d="M0 0 C74.25 0 148.5 0 225 0 C225 74.25 225 148.5 225 225 C150.75 225 76.5 225 0 225 C0 150.75 0 76.5 0 0 Z " fill="#F8F8F8" transform="translate(0,0)"/>
<path d="M0 0 C74.25 0 148.5 0 225 0 C225 34.32 225 68.64 225 104 C218.2368015 99.69614641 211.61815598 95.41545281 205.125 90.75 C203.02236675 89.24273602 200.91840265 87.74004175 198.79394531 86.26367188 C197.34888805 85.24576001 195.9444131 84.1703694 194.5546875 83.078125 C188.6490435 80.58583487 180.67792575 83.35948191 174.5625 84.62890625 C172.99224194 84.94493206 171.42192769 85.26067884 169.8515625 85.57617188 C167.42211226 86.0686877 164.99328429 86.56388395 162.56542969 87.06420898 C160.19094329 87.55181816 157.8144553 88.02849954 155.4375 88.50390625 C154.36834351 88.72887535 154.36834351 88.72887535 153.27758789 88.95838928 C148.11280921 89.98173294 143.26531185 90.12393157 138 90 C137.67 89.01 137.34 88.02 137 87 C136.113125 87.61875 135.22625 88.2375 134.3125 88.875 C127.41359785 93.30071081 127.41359785 93.30071081 123.8515625 92.54296875 C123.24054688 92.36378906 122.62953125 92.18460937 122 92 C127.3209603 87.00953412 133.02195589 82.72781568 138.98681641 78.55322266 C139.56222168 78.15022949 140.13762695 77.74723633 140.73046875 77.33203125 C141.28653809 76.94354004 141.84260742 76.55504883 142.41552734 76.15478516 C143.90633076 75.06826742 145.32592402 73.88592119 146.73828125 72.69921875 C149 71 149 71 152 71 C152.24105469 70.42507812 152.48210937 69.85015625 152.73046875 69.2578125 C154.23946529 66.5741202 156.03882629 64.94614479 158.3125 62.875 C163.82522285 57.46008352 168.09732216 51.49959696 168.5625 43.5625 C168.34168503 40.00219421 168.34168503 40.00219421 166.1875 38.0625 C155.01900215 32.63780105 141.17211391 36.40437713 130 40 C129.79676308 42.24833011 129.79676308 42.24833011 131.875 44.4375 C135.027073 47.52580274 138.70059639 48.35577305 142.890625 49.421875 C145 50 145 50 146 51 C146.53894009 57.14391706 145.76507705 61.95051539 142 67 C141.01 67.33 140.02 67.66 139 68 C138.34 67.67 137.68 67.34 137 67 C138 63 138 63 138.7421875 61.1640625 C139.22817932 58.87132024 139.22817932 58.87132024 137.69921875 56.6328125 C131.44246269 48.83312825 124.74044718 43.66745827 115 41 C103.62485387 40.03642877 94.03878097 40.80477716 85.046875 48.16015625 C76.17639365 56.13343243 72.38067298 62.4462444 70 74 C68.576875 74.23783203 68.576875 74.23783203 67.125 74.48046875 C62.40954012 75.281808 57.70383476 76.13322225 53 77 C51.46738525 77.28133789 51.46738525 77.28133789 49.90380859 77.56835938 C46.66124139 78.17312972 43.42423991 78.80234119 40.1875 79.4375 C39.14400391 79.63045654 38.10050781 79.82341309 37.02539062 80.0222168 C35.5490918 80.31866089 35.5490918 80.31866089 34.04296875 80.62109375 C32.72848755 80.87524048 32.72848755 80.87524048 31.38745117 81.13452148 C26.73888522 82.81968012 24.10384907 87.03967754 21.125 90.8125 C17.11620135 95.75824658 12.90110254 100.46648256 8.5625 105.125 C7.94713379 105.78862549 7.33176758 106.45225098 6.69775391 107.13598633 C5.82836182 108.06254028 5.82836182 108.06254028 4.94140625 109.0078125 C4.42263916 109.56098145 3.90387207 110.11415039 3.36938477 110.68408203 C2 112 2 112 0 113 C0 75.71 0 38.42 0 0 Z " fill="#CB4C2F" transform="translate(0,0)"/>
<path d="M0 0 C7.60328668 2.06703451 15.19831906 4.16168762 22.78710938 6.28125 C23.53669922 6.49007812 24.28628906 6.69890625 25.05859375 6.9140625 C26.05330688 7.1917749 26.05330688 7.1917749 27.06811523 7.47509766 C29.038272 8.01039869 31.01937267 8.50484317 33 9 C33 48.6 33 88.2 33 129 C-41.25 129 -115.5 129 -192 129 C-192 92.7 -192 56.4 -192 19 C-174 23 -174 23 -165 26 C-165 42.83 -165 59.66 -165 77 C-159.39 78.32 -153.78 79.64 -148 81 C-144.60943349 81.82766608 -141.22116063 82.65926808 -137.8359375 83.5078125 C-136.56515854 83.82514847 -136.56515854 83.82514847 -135.26870728 84.14889526 C-133.51639644 84.58680585 -131.76422826 85.02528764 -130.01220703 85.46435547 C-127.34321456 86.13296254 -124.67359015 86.79900348 -122.00390625 87.46484375 C-120.28121219 87.89568219 -118.55855457 88.32666634 -116.8359375 88.7578125 C-116.05044525 88.9536795 -115.264953 89.14954651 -114.45565796 89.35134888 C-110.99168564 90.22100393 -107.54897276 91.12092475 -104.12426758 92.13500977 C-84.84864004 97.47169402 -56.57020061 86.93780093 -37.13360596 83.23126221 C-31.30501914 82.11984412 -25.47576133 81.01202023 -19.64550972 79.90936852 C-17.62478175 79.52615691 -15.60472911 79.13952384 -13.58470154 78.75263977 C-12.36815384 78.52207382 -11.15160614 78.29150787 -9.89819336 78.05395508 C-8.82822617 77.84982498 -7.75825897 77.64569489 -6.65586853 77.43537903 C-4 77 -4 77 -1 77 C-1.00523682 75.8754541 -1.01047363 74.7509082 -1.01586914 73.59228516 C-1.11989694 49.03926054 -0.92361161 24.53711802 0 0 Z " fill="#CC4C2F" transform="translate(192,96)"/>
<path d="M0 0 C5.36896309 3.76722243 9.8106315 8.25913669 13 14 C12.375 16.75 12.375 16.75 11 19 C10.67 19.99 10.34 20.98 10 22 C10.99 22.33 11.98 22.66 13 23 C2.29392157 36.25514473 -15.05218193 48.61043639 -32 52 C-31.67 82.69 -31.34 113.38 -31 145 C-42.15057566 143.88494243 -42.15057566 143.88494243 -47.3046875 142.2578125 C-53.23109156 140.48037297 -59.17840999 138.93346751 -65.1953125 137.4921875 C-66.08418152 137.2783844 -66.97305054 137.0645813 -67.88885498 136.84429932 C-71.57492892 135.95968457 -75.2621676 135.08004572 -78.95019531 134.20361328 C-81.67875314 133.55397925 -84.40583561 132.89842099 -87.1328125 132.2421875 C-87.96507355 132.0463205 -88.79733459 131.85045349 -89.65481567 131.64865112 C-90.4301767 131.46150543 -91.20553772 131.27435974 -92.00439453 131.08154297 C-92.68164581 130.92040009 -93.35889709 130.7592572 -94.05667114 130.5932312 C-96 130 -96 130 -100 128 C-100 111.17 -100 94.34 -100 77 C-105.61 75.68 -111.22 74.36 -117 73 C-123.8203125 71.03125 -123.8203125 71.03125 -127 70 C-125.60286388 66.80554305 -123.97467102 64.81065188 -121.4375 62.4375 C-116.50950806 57.64366392 -112.30355869 52.34950709 -108 47 C-106.90292628 45.6815655 -105.79979642 44.36811746 -104.6875 43.0625 C-104.25824219 42.55847656 -103.82898438 42.05445313 -103.38671875 41.53515625 C-102.92910156 41.02855469 -102.47148438 40.52195313 -102 40 C-101.43112061 39.34273926 -100.86224121 38.68547852 -100.27612305 38.00830078 C-97.57745249 35.62717196 -95.69288455 35.09948808 -92.1953125 34.33203125 C-91.06005127 34.0788916 -89.92479004 33.82575195 -88.75512695 33.56494141 C-87.55718506 33.31663574 -86.35924316 33.06833008 -85.125 32.8125 C-83.91094482 32.55130371 -82.69688965 32.29010742 -81.44604492 32.02099609 C-73.29390911 30.32297571 -65.34885344 29.03086452 -57 29 C-56.896875 27.824375 -56.79375 26.64875 -56.6875 25.4375 C-55.29573478 15.11674749 -49.23533199 8.4689891 -41.46484375 1.8359375 C-39.32551515 0.24245978 -37.3276039 -1.02333409 -34.9375 -2.1875 C-34.28652344 -2.51105469 -33.63554688 -2.83460937 -32.96484375 -3.16796875 C-22.32490564 -7.6735489 -9.70700533 -5.66717811 0 0 Z " fill="#CACACA" transform="translate(127,45)"/>
<path d="M0 0 C0.33 30.03 0.66 60.06 1 91 C-10.14914425 89.88508557 -10.14914425 89.88508557 -15.30078125 88.2578125 C-21.23962951 86.47639941 -27.19975079 84.93174868 -33.23046875 83.4921875 C-34.12170441 83.2783844 -35.01294006 83.0645813 -35.93118286 82.84429932 C-39.62818063 81.95917784 -43.32625696 81.07873491 -47.02563477 80.20361328 C-49.76185741 79.55503068 -52.49623597 78.89910013 -55.23046875 78.2421875 C-56.06789108 78.0463205 -56.90531342 77.85045349 -57.76811218 77.64865112 C-58.54354874 77.46150543 -59.31898529 77.27435974 -60.11791992 77.08154297 C-61.13712776 76.83982864 -61.13712776 76.83982864 -62.17692566 76.5932312 C-64 76 -64 76 -67 74 C-67.36076355 71.82333374 -67.36076355 71.82333374 -67.34057617 69.09130859 C-67.34034958 68.07040131 -67.34012299 67.04949402 -67.33988953 65.99765015 C-67.32440567 64.89240997 -67.30892181 63.7871698 -67.29296875 62.6484375 C-67.28872391 61.5192691 -67.28447906 60.39010071 -67.28010559 59.22671509 C-67.26327132 55.60923727 -67.22560975 51.99231031 -67.1875 48.375 C-67.17245934 45.92709136 -67.15876986 43.47917402 -67.14648438 41.03125 C-67.11335227 35.0206444 -67.06310579 29.01036154 -67 23 C-65.41206418 23.31102645 -63.82448678 23.6238831 -62.23706055 23.9375 C-60.91087959 24.19853516 -60.91087959 24.19853516 -59.5579071 24.46484375 C-56.25931494 25.1549635 -53.04448016 26.04788617 -49.8125 27 C-48.68457031 27.33 -47.55664062 27.66 -46.39453125 28 C-44.03547239 28.69495865 -41.68022987 29.40295109 -39.328125 30.12109375 C-35.18462138 31.21532886 -32.03738923 31.56232984 -28 30 C-25.63149904 27.92007502 -23.86135585 25.5305442 -22 23 C-20.66666667 21.66666667 -19.33333333 20.33333333 -18 19 C-14.5391149 15.13945495 -11.16897022 11.20128773 -7.8125 7.25 C-1.60769451 0 -1.60769451 0 0 0 Z " fill="#E3E3E3" transform="translate(95,99)"/>
<path d="M0 0 C1.16144531 0.00902344 2.32289063 0.01804687 3.51953125 0.02734375 C4.39996094 0.03894531 5.28039062 0.05054687 6.1875 0.0625 C9.64958752 7.50065983 12.84280611 15.0048254 15.83203125 22.64453125 C16.24668137 23.70234299 16.66133148 24.76015472 17.08854675 25.85002136 C17.95493153 28.0652547 18.8195211 30.28119094 19.68237305 32.49780273 C21.00471567 35.88708669 22.34114724 39.27060943 23.67773438 42.65429688 C24.5217079 44.81736731 25.36483696 46.98076745 26.20703125 49.14453125 C26.60694778 50.15087112 27.00686432 51.157211 27.41889954 52.19404602 C29.25297435 56.95253955 30.7452475 60.86652648 30.1875 66.0625 C24.71225681 68.36786555 20.03425143 68.22052031 14.1875 68.0625 C12.5375 64.1025 10.8875 60.1425 9.1875 56.0625 C-4.14430058 55.13304139 -4.14430058 55.13304139 -16.46484375 59.265625 C-18.28582955 61.69360606 -18.87301 64.0844141 -19.6875 67 C-21.18377807 71.7468132 -22.24160057 74.60124646 -26.8125 77.0625 C-29.69461302 78.02320434 -31.51100044 78.16831883 -34.5 78.125 C-35.26159424 78.1139624 -36.02318848 78.1029248 -36.80786133 78.09155273 C-37.46939209 78.08196533 -38.13092285 78.07237793 -38.8125 78.0625 C-37.51978719 69.35831272 -35.14513314 61.17051111 -32.41796875 52.8203125 C-31.98421771 51.48043634 -31.55065297 50.14049985 -31.11726379 48.80050659 C-30.21377314 46.01373657 -29.30438501 43.22897155 -28.39135742 40.4453125 C-27.22621106 36.88958784 -26.08191514 33.32751933 -24.94256115 29.76346016 C-24.05641132 27.00273462 -23.15646849 24.24665061 -22.25264931 21.49166489 C-21.82475929 20.18002067 -21.40176565 18.86676797 -20.98393822 17.5518837 C-20.39857678 15.71496087 -19.79184481 13.88489013 -19.18432617 12.05517578 C-18.6770826 10.49611008 -18.6770826 10.49611008 -18.15959167 8.9055481 C-16.55751986 5.52436231 -14.62304409 3.50788136 -11.8125 1.0625 C-7.94948197 -0.24624752 -4.05395566 -0.04094905 0 0 Z " fill="#303030" transform="translate(147.8125,98.9375)"/>
<path d="M0 0 C5.36896309 3.76722243 9.8106315 8.25913669 13 14 C11.88419712 21.81062018 1.63238021 28.11216899 -4.31445312 32.75097656 C-13.21867962 39.3491838 -23.2375179 43.55212415 -33.48046875 47.5546875 C-37.02825717 48.87652642 -37.02825717 48.87652642 -40 51 C-42.59375 51.1171875 -42.59375 51.1171875 -45.5 50.875 C-46.4590625 50.81054688 -47.418125 50.74609375 -48.40625 50.6796875 C-51 50 -51 50 -52.76953125 48.21484375 C-57.6014189 39.51744598 -57.36526589 26.55208128 -55.0625 17.1875 C-50.02525437 9.40266584 -43.37810778 1.92373043 -34.9375 -2.1875 C-34.28652344 -2.51105469 -33.63554688 -2.83460937 -32.96484375 -3.16796875 C-22.32490564 -7.6735489 -9.70700533 -5.66717811 0 0 Z " fill="#F5F5F5" transform="translate(127,45)"/>
<path d="M0 0 C0.89976562 0.30292969 1.79953125 0.60585937 2.7265625 0.91796875 C14.31618574 4.72349382 26.0809609 7.43720882 38 10 C38 10.66 38 11.32 38 12 C26.92960201 14.59650279 15.84508308 17.11637218 4.6875 19.3125 C3.84807861 19.48362305 3.00865723 19.65474609 2.14379883 19.83105469 C-3.32727382 20.88232242 -8.42857113 21.15088122 -14 21 C-14.33 20.01 -14.66 19.02 -15 18 C-15.886875 18.61875 -16.77375 19.2375 -17.6875 19.875 C-24.58640215 24.30071081 -24.58640215 24.30071081 -28.1484375 23.54296875 C-28.75945312 23.36378906 -29.37046875 23.18460938 -30 23 C-24.6790397 18.00953412 -18.97804411 13.72781568 -13.01318359 9.55322266 C-12.43777832 9.15022949 -11.86237305 8.74723633 -11.26953125 8.33203125 C-10.71346191 7.94354004 -10.15739258 7.55504883 -9.58447266 7.15478516 C-8.09366924 6.06826742 -6.67407598 4.88592119 -5.26171875 3.69921875 C-3 2 -3 2 0 2 C0 1.34 0 0.68 0 0 Z " fill="#9A9A9A" transform="translate(152,69)"/>
<path d="M0 0 C6.74703557 2.24901186 6.74703557 2.24901186 9.375 4.25 C9.96144287 4.68916748 10.54788574 5.12833496 11.15209961 5.58081055 C11.76190674 6.04914307 12.37171387 6.51747559 13 7 C14.31314636 7.98655048 15.62696617 8.97220513 16.94140625 9.95703125 C17.94131592 10.71040771 17.94131592 10.71040771 18.96142578 11.47900391 C22.25036887 13.93290995 25.59241017 16.31099875 28.9375 18.6875 C29.54658203 19.12126953 30.15566406 19.55503906 30.78320312 20.00195312 C32.18814789 21.00222158 33.59396709 22.00126168 35 23 C31.35485919 24.29866268 28.95233061 23.6847969 25.28125 22.63671875 C24.18425781 22.32669922 23.08726562 22.01667969 21.95703125 21.69726562 C20.81621094 21.36404297 19.67539063 21.03082031 18.5 20.6875 C17.35917969 20.36587891 16.21835938 20.04425781 15.04296875 19.71289062 C5.83698094 17.07874488 5.83698094 17.07874488 2 15 C2.00523682 15.99854004 2.01047363 16.99708008 2.01586914 18.02587891 C2.03404242 21.74950251 2.0454769 25.47312224 2.05493164 29.19677734 C2.05994375 30.80485698 2.06675519 32.4129321 2.07543945 34.02099609 C2.08764226 36.33952961 2.09325964 38.65800259 2.09765625 40.9765625 C2.10281754 41.68930328 2.10797882 42.40204407 2.11329651 43.13638306 C2.11374755 47.19856429 1.78775607 51.01488106 1 55 C0.67 55 0.34 55 0 55 C0 36.85 0 18.7 0 0 Z " fill="#BDBDBC" transform="translate(190,81)"/>
<path d="M0 0 C2.475 0.99 2.475 0.99 5 2 C-5.77602879 15.34174993 -21.69532311 25.5651077 -38 31 C-39.39439664 31.06665376 -40.79169875 31.08538199 -42.1875 31.0625 C-44.0746875 31.0315625 -44.0746875 31.0315625 -46 31 C-45.76904297 29.13208008 -45.76904297 29.13208008 -45 27 C-43.13330078 25.83081055 -43.13330078 25.83081055 -40.6953125 24.88671875 C-39.80714844 24.52980957 -38.91898437 24.17290039 -38.00390625 23.80517578 C-37.05386719 23.43634277 -36.10382813 23.06750977 -35.125 22.6875 C-21.44475769 17.08125612 -11.02718441 9.69480601 0 0 Z " fill="#9C9C9C" transform="translate(135,66)"/>
<path d="M0 0 C3 1 3 1 4.60546875 4.16796875 C5.14458695 5.50311828 5.67146485 6.84326028 6.1875 8.1875 C6.46013672 8.84814453 6.73277344 9.50878906 7.01367188 10.18945312 C8.62139261 14.27121029 9.31188303 17.54353811 9 22 C3.10261508 24.29342747 -1.66606918 25.34548714 -8 25 C-7.59117903 17.09612795 -5.80140514 5.80140514 0 0 Z " fill="#EDEDED" transform="translate(143,118)"/>
<path d="M0 0 C-5 5 -5 5 -7.25 7.125 C-9.22443723 8.97977175 -9.22443723 8.97977175 -10 12 C-16.90829896 13.10839509 -22.28958085 12.68610901 -29.0625 11.0625 C-29.92810547 10.86720703 -30.79371094 10.67191406 -31.68554688 10.47070312 C-33.79330194 9.99325584 -35.89711189 9.49844652 -38 9 C-35.44147207 5.83127227 -32.9918677 5.26006305 -29.08203125 4.39453125 C-27.32342773 4.00297852 -27.32342773 4.00297852 -25.52929688 3.60351562 C-24.30275391 3.34248047 -23.07621094 3.08144531 -21.8125 2.8125 C-20.60529297 2.53986328 -19.39808594 2.26722656 -18.15429688 1.98632812 C-11.98199184 0.63982746 -6.31823461 -0.35407292 0 0 Z " fill="#939393" transform="translate(64,75)"/>
<path d="M0 0 C1.55611035 8.7108351 1.55611035 8.7108351 -0.375 13.1875 C-3.8964752 15.61899478 -6.07505011 15.10156393 -10.171875 14.39453125 C-10.77515625 14.26433594 -11.3784375 14.13414063 -12 14 C-12.3046875 11.80078125 -12.3046875 11.80078125 -12 9 C-9.8828125 6.54296875 -9.8828125 6.54296875 -7.125 4.1875 C-6.22007813 3.39730469 -5.31515625 2.60710937 -4.3828125 1.79296875 C-2 0 -2 0 0 0 Z " fill="#F1F1F1" transform="translate(66,75)"/>
<path d="M0 0 C0.33 0 0.66 0 1 0 C1.33801152 2.54112232 1.67053379 5.08276746 2 7.625 C2.09539062 8.33785156 2.19078125 9.05070312 2.2890625 9.78515625 C2.81606101 13.88821609 3.10466984 17.85245742 3 22 C-4.75 22.125 -4.75 22.125 -7 21 C-6.690625 20.2575 -6.38125 19.515 -6.0625 18.75 C-4.07501045 13.6059094 -3.90836959 9.49782469 -4 4 C-2.68 4 -1.36 4 0 4 C0 2.68 0 1.36 0 0 Z " fill="#9B9B9B" transform="translate(70,70)"/>
<path d="M0 0 C-0.99 1.485 -0.99 1.485 -2 3 C-4.3828125 3.29296875 -4.3828125 3.29296875 -7.125 3.1875 C-8.03507812 3.16042969 -8.94515625 3.13335937 -9.8828125 3.10546875 C-10.58148437 3.07066406 -11.28015625 3.03585938 -12 3 C-8.16772312 -1.19725563 -5.42060446 -1.08412089 0 0 Z " fill="#8D8D8D" transform="translate(38,81)"/>
<path d="M0 0 C0.66 0.66 1.32 1.32 2 2 C1.34 3.65 0.68 5.3 0 7 C-1.32 6.67 -2.64 6.34 -4 6 C-2.84826645 3.53199953 -1.95216435 1.95216435 0 0 Z " fill="#B4B4B4" transform="translate(4,109)"/>
</svg>
