<?xml version="1.0" encoding="UTF-8"?>
<svg version="1.1" xmlns="http://www.w3.org/2000/svg" width="225" height="225">
<path d="M0 0 C74.25 0 148.5 0 225 0 C225 74.25 225 148.5 225 225 C150.75 225 76.5 225 0 225 C0 150.75 0 76.5 0 0 Z " fill="#CBCBCB" transform="translate(0,0)"/>
<path d="M0 0 C74.25 0 148.5 0 225 0 C225 34.32 225 68.64 225 104 C221.41874673 102.56749869 219.21681905 101.63523051 216.25 99.49609375 C215.21166016 98.75456055 215.21166016 98.75456055 214.15234375 97.99804688 C213.44207031 97.48306641 212.73179687 96.96808594 212 96.4375 C209.84288038 94.88822149 207.68391539 93.34322852 205.51098633 91.81616211 C203.70961091 90.51325188 201.94751329 89.15537319 200.21362305 87.76391602 C191.05268324 80.74438133 181.99354366 78.39446852 170.8125 76.0625 C168.27943854 75.50925837 165.74842737 74.94791486 163.21867371 74.37974548 C161.65951049 74.03213834 160.09810048 73.69442074 158.53437805 73.36793518 C153.21929418 72.21929418 153.21929418 72.21929418 151 70 C151.56847656 69.47792969 152.13695312 68.95585938 152.72265625 68.41796875 C159.18329582 62.25932903 167.57025361 53.90901282 168.25 44.5625 C168.31223228 41.12392831 168.31223228 41.12392831 166.75 39.1875 C160.07672024 34.65920302 152.472015 35.07609248 144.71826172 36.38525391 C136.12473358 37.99051017 136.12473358 37.99051017 128 41 C128.5053125 41.33773437 129.010625 41.67546875 129.53125 42.0234375 C130.50578125 42.69246094 130.50578125 42.69246094 131.5 43.375 C132.1496875 43.81585938 132.799375 44.25671875 133.46875 44.7109375 C133.9740625 45.13632812 134.479375 45.56171875 135 46 C135 46.66 135 47.32 135 48 C136.051875 47.938125 137.10375 47.87625 138.1875 47.8125 C142.23411674 48.01151394 144.05053792 48.2292932 147 51 C148.24292656 58.18135346 144.8275524 62.25867141 141 68 C139.35 67.67 137.7 67.34 136 67 C136.309375 66.401875 136.61875 65.80375 136.9375 65.1875 C138.10209704 62.91043228 138.10209704 62.91043228 139 60 C134.66786525 51.19940458 127.7645902 45.72908826 118.8125 42.125 C107.18515688 38.73030367 97.17661947 41.12462549 86.875 46.6875 C77.52901524 54.20492253 72.88817137 62.23399788 71 74 C65.21660545 75.1429243 59.43250147 76.28216099 53.64770508 77.41796875 C51.67940595 77.80497288 49.7113054 78.19298847 47.7434082 78.58203125 C44.9166934 79.14067617 42.08928713 79.6956938 39.26171875 80.25 C38.38037766 80.42499023 37.49903656 80.59998047 36.59098816 80.78027344 C35.77036392 80.94043945 34.94973969 81.10060547 34.10424805 81.265625 C33.02169991 81.47880371 33.02169991 81.47880371 31.9172821 81.69628906 C30 82 30 82 27 82 C26.77441406 82.54527344 26.54882812 83.09054688 26.31640625 83.65234375 C24.60859886 86.69801806 22.32959113 89.05337339 19.9375 91.5625 C15.42085164 96.38259436 11.17817516 101.34956249 7.0703125 106.52734375 C4.8689197 109.1565544 2.42475555 111.57524445 0 114 C0 76.38 0 38.76 0 0 Z " fill="#000000" transform="translate(0,0)"/>
<path d="M0 0 C31 9 31 9 34 10 C34 49.6 34 89.2 34 130 C-40.25 130 -114.5 130 -191 130 C-191 93.7 -191 57.4 -191 20 C-182.09 22.31 -173.18 24.62 -164 27 C-164 43.83 -164 60.66 -164 78 C-158.06 79.32 -152.12 80.64 -146 82 C-142.15192216 82.90711247 -138.30840817 83.8211353 -134.46875 84.76171875 C-133.50014038 84.99784378 -132.53153076 85.23396881 -131.53356934 85.47724915 C-129.53077708 85.96607411 -127.52821166 86.45582941 -125.52587891 86.9465332 C-122.44901607 87.69998477 -119.37103567 88.44875006 -116.29296875 89.19726562 C-114.33066138 89.67680604 -112.3684192 90.1566133 -110.40625 90.63671875 C-109.48871948 90.85962082 -108.57118896 91.08252289 -107.62585449 91.31217957 C-106.78317017 91.51942154 -105.94048584 91.72666351 -105.07226562 91.94018555 C-104.33157837 92.12131393 -103.59089111 92.30244232 -102.82775879 92.48905945 C-101 93 -101 93 -99 94 C-87.09863552 94.15642378 -74.94603107 90.95773219 -63.3125 88.8125 C-61.07806636 88.40510884 -58.8435277 87.99829331 -56.60888672 87.59204102 C-47.39036122 85.91390529 -38.17529798 84.21699026 -28.96031189 82.51954651 C-25.8839011 81.9533226 -22.80711886 81.38913258 -19.73031616 80.82504272 C-17.66896252 80.44559254 -15.60849962 80.0615709 -13.5480957 79.67700195 C-11.71831177 79.33995239 -11.71831177 79.33995239 -9.8515625 78.99609375 C-8.80822754 78.80200928 -7.76489258 78.6079248 -6.68994141 78.40795898 C-4 78 -4 78 0 78 C0 52.26 0 26.52 0 0 Z " fill="#000000" transform="translate(191,95)"/>
<path d="M0 0 C0.66 0 1.32 0 2 0 C3.38232443 1.62626404 4.71937515 3.2925002 6 5 C3.32602225 8.60770479 0.77131872 11.10042011 -2.984375 13.55078125 C-3.91894531 14.16630859 -4.85351562 14.78183594 -5.81640625 15.41601562 C-6.78449219 16.04185547 -7.75257813 16.66769531 -8.75 17.3125 C-9.73355469 17.95767578 -10.71710938 18.60285156 -11.73046875 19.26757812 C-14.14892605 20.85248946 -16.57209304 22.42961859 -19 24 C-13.73763475 23.53354815 -10.42465641 22.39945806 -6.0625 19.4375 C-4.62583984 18.47650391 -4.62583984 18.47650391 -3.16015625 17.49609375 C-2.44730469 17.00238281 -1.73445313 16.50867188 -1 16 C-1.495 18.475 -1.495 18.475 -2 21 C3.68272816 20.34312334 9.26604751 19.44882571 14.8828125 18.37109375 C16.56116601 18.05516899 18.23955242 17.73941896 19.91796875 17.42382812 C22.52955866 16.9300029 25.14079948 16.43448197 27.75146484 15.93579102 C30.29436798 15.45109928 32.83847079 14.97316763 35.3828125 14.49609375 C36.15795197 14.34611435 36.93309143 14.19613495 37.73171997 14.04161072 C48.18992294 12.09214203 48.18992294 12.09214203 52.5078125 14.2578125 C53.37148437 14.87398437 54.23515625 15.49015625 55.125 16.125 C56.1459375 16.84171875 57.166875 17.5584375 58.21875 18.296875 C58.80011719 18.71388672 59.38148438 19.13089844 59.98046875 19.56054688 C62.35758805 21.25487659 64.75595989 22.91678884 67.15625 24.578125 C70.72528477 27.05429847 74.29383478 29.53103747 77.8515625 32.0234375 C78.60260254 32.54856934 79.35364258 33.07370117 80.12744141 33.61474609 C82 35 82 35 84 37 C72.81966011 34.76393202 61.90776048 31.31975319 51 28 C50.67 53.41 50.34 78.82 50 105 C20.9753135 110.8049373 20.9753135 110.8049373 9.3125 112.89453125 C8.6626413 113.01130407 8.01278259 113.1280769 7.3432312 113.24838829 C3.93568892 113.86065182 0.52766935 114.47015712 -2.88085938 115.0769043 C-6.35680621 115.69620595 -9.83091006 116.3253063 -13.30473328 116.95639515 C-16.0303152 117.44978143 -18.75711238 117.93617295 -21.48428345 118.42069054 C-23.3799732 118.75925707 -25.27436268 119.105079 -27.16870117 119.4511261 C-28.32861572 119.65521591 -29.48853027 119.85930573 -30.68359375 120.06958008 C-31.68962646 120.24991287 -32.69565918 120.43024567 -33.73217773 120.61604309 C-37.79550246 121.09346857 -41.90872356 121 -46 121 C-46 90.64 -46 60.28 -46 29 C-36.595 24.545 -36.595 24.545 -27 20 C-17.7710435 14.33469997 -7.72471086 7.72471086 0 0 Z " fill="#FBFBFB" transform="translate(141,68)"/>
<path d="M0 0 C0.33 0 0.66 0 1 0 C1 29.7 1 59.4 1 90 C2.485 90.495 2.485 90.495 4 91 C-0.44883232 91.17219941 -4.04943653 90.61345972 -8.3203125 89.38671875 C-9.64944087 89.01517502 -10.97924742 88.64605236 -12.30957031 88.27880859 C-13.04824341 88.07463318 -13.7869165 87.87045776 -14.54797363 87.66009521 C-19.32353768 86.37449445 -24.12844835 85.20483977 -28.9296875 84.01953125 C-31.06380574 83.49024913 -33.19792028 82.96095208 -35.33203125 82.43164062 C-38.63456156 81.61381691 -41.93736075 80.79712468 -45.24072266 79.98266602 C-48.47115622 79.18556137 -51.70049244 78.38413612 -54.9296875 77.58203125 C-55.9274118 77.3372554 -56.92513611 77.09247955 -57.95309448 76.84028625 C-58.86559967 76.61302353 -59.77810486 76.3857608 -60.71826172 76.15161133 C-61.52351288 75.95271805 -62.32876404 75.75382477 -63.15841675 75.54890442 C-65 75 -65 75 -66 74 C-66.09333705 72.40389018 -66.11745372 70.80366572 -66.11352539 69.20483398 C-66.11344986 68.18385117 -66.11337433 67.16286835 -66.11329651 66.11094666 C-66.10813522 65.0005452 -66.10297394 63.89014374 -66.09765625 62.74609375 C-66.0962413 61.61551041 -66.09482635 60.48492706 -66.09336853 59.32008362 C-66.08775019 55.69252935 -66.07519458 52.06503576 -66.0625 48.4375 C-66.05748736 45.98502693 -66.05292405 43.5325529 -66.04882812 41.08007812 C-66.0377748 35.05336455 -66.02101884 29.02668661 -66 23 C-62.37417718 23.93433619 -58.74950365 24.87306063 -55.125 25.8125 C-54.11179687 26.07353516 -53.09859375 26.33457031 -52.0546875 26.60351562 C-46.38099838 28.07649261 -40.79505148 29.64876594 -35.24951172 31.5534668 C-32.51612012 32.09605126 -30.66009902 31.78860974 -28 31 C-25.98657618 29.18164999 -25.98657618 29.18164999 -24.3125 26.9375 C-23.2470967 25.59334373 -22.15043315 24.27214144 -21 23 C-20.34 23 -19.68 23 -19 23 C-18.77183594 22.4534375 -18.54367188 21.906875 -18.30859375 21.34375 C-16.61193004 18.30494932 -14.43845882 16.03993836 -12.0625 13.5 C-8.51654261 9.71743359 -8.51654261 9.71743359 -5.30859375 5.65625 C-4.87675781 5.1096875 -4.44492188 4.563125 -4 4 C-3.34 4 -2.68 4 -2 4 C-1.34 2.68 -0.68 1.36 0 0 Z " fill="#E4E4E4" transform="translate(94,99)"/>
<path d="M0 0 C1.88464966 0.01027222 1.88464966 0.01027222 3.80737305 0.02075195 C9.06045063 13.05799967 14.22394451 26.1263768 19.24682617 39.25415039 C19.96526752 41.12831646 20.68671443 43.00133266 21.41088867 44.87329102 C22.47657082 47.62835382 23.53358556 50.3865982 24.58862305 53.14575195 C24.91350708 53.98106445 25.23839111 54.81637695 25.57312012 55.67700195 C25.86763062 56.45301758 26.16214111 57.2290332 26.46557617 58.02856445 C26.72568481 58.7054834 26.98579346 59.38240234 27.25378418 60.07983398 C27.80737305 62.02075195 27.80737305 62.02075195 27.80737305 66.02075195 C22.23670028 67.61237274 17.59635724 68.22750139 11.80737305 68.02075195 C10.15737305 63.73075195 8.50737305 59.44075195 6.80737305 55.02075195 C0.85388621 54.70181516 -4.71308053 55.2644193 -10.56762695 56.27075195 C-11.62046875 56.43474487 -11.62046875 56.43474487 -12.69458008 56.60205078 C-15.69836763 57.15455905 -17.78868391 57.64481337 -20.05200195 59.7512207 C-21.89777664 63.42380663 -22.8506678 67.29262153 -23.93481445 71.2434082 C-25.4972367 74.69335298 -26.74131312 75.53950138 -30.19262695 77.02075195 C-33.0871582 77.5324707 -33.0871582 77.5324707 -36.00512695 77.70825195 C-36.98094727 77.77399414 -37.95676758 77.83973633 -38.9621582 77.9074707 C-40.06624023 77.96354492 -40.06624023 77.96354492 -41.19262695 78.02075195 C-40.61261366 73.19648555 -39.63166109 68.82554883 -38.10717773 64.21508789 C-37.89727203 63.57514893 -37.68736633 62.93520996 -37.47109985 62.27587891 C-36.78284309 60.18354571 -36.085858 58.09425545 -35.38793945 56.00512695 C-34.9030476 54.54266922 -34.41842254 53.080123 -33.93405151 51.61749268 C-32.92096607 48.56336444 -31.90328443 45.51081457 -30.88256836 42.45922852 C-29.57551301 38.54969072 -28.28220873 34.63575748 -26.99254036 30.72045517 C-25.99680221 27.70378973 -24.99277376 24.68993332 -23.98632431 21.67682648 C-23.50588123 20.23447114 -23.02827033 18.79116917 -22.55356216 17.3469162 C-21.88989389 15.33124332 -21.21489126 13.3197189 -20.53686523 11.30883789 C-20.15571564 10.16413025 -19.77456604 9.01942261 -19.38186646 7.84002686 C-18.25489007 5.16835623 -17.46849957 3.76425049 -15.19262695 2.02075195 C-12.7746582 1.2902832 -12.7746582 1.2902832 -10.00512695 0.83325195 C-9.10407227 0.67469727 -8.20301758 0.51614258 -7.2746582 0.3527832 C-4.79583999 0.08573688 -2.48380356 -0.01353788 0 0 Z " fill="#2E2E2E" transform="translate(150.192626953125,98.979248046875)"/>
<path d="M0 0 C5.54612069 3.97471982 9.13352089 8.6161148 12.53125 14.4921875 C6.49703085 28.82762526 -12.15476266 38.13321146 -25.34375 44.4921875 C-26.11589844 44.86617676 -26.88804688 45.24016602 -27.68359375 45.62548828 C-35.61272137 49.29593994 -42.86396492 51.80853731 -51.359375 48.6953125 C-53.46875 47.4921875 -53.46875 47.4921875 -55.59375 44.3671875 C-57.92322043 35.31744626 -58.04259262 23.29018846 -53.92578125 14.765625 C-49.20852653 7.40519002 -43.32772223 1.38214156 -35.46875 -2.5078125 C-34.87964844 -2.82492188 -34.29054688 -3.14203125 -33.68359375 -3.46875 C-22.82190986 -8.4960262 -9.86443983 -6.02480028 0 0 Z " fill="#F7F7F7" transform="translate(127.46875,45.5078125)"/>
<path d="M0 0 C3.1859229 2.51910183 3.54761597 3.16579526 4.125 7.125 C3.9121525 17.40553408 -6.56885996 26.38135996 -13.3125 33.125 C-9.18172911 34.92281223 -4.97549878 36.03644269 -0.60546875 37.0703125 C0.11992599 37.24505096 0.84532074 37.41978943 1.59269714 37.599823 C3.89430342 38.15340194 6.19711351 38.70177391 8.5 39.25 C10.06713985 39.62595813 11.63419809 40.0022566 13.20117188 40.37890625 C17.02901455 41.29821298 20.85794494 42.21285405 24.6875 43.125 C24.6875 43.455 24.6875 43.785 24.6875 44.125 C18.08678652 45.41325842 11.4846924 46.69424871 4.8815918 47.97021484 C2.63582496 48.40506768 0.3903785 48.84157848 -1.85473633 49.27978516 C-5.08331679 49.90964757 -8.31300538 50.53352325 -11.54296875 51.15625 C-12.54522995 51.35311401 -13.54749115 51.54997803 -14.5801239 51.75280762 C-15.52072159 51.93299438 -16.46131927 52.11318115 -17.43041992 52.29882812 C-18.25426682 52.45871216 -19.07811371 52.61859619 -19.92692566 52.7833252 C-22.42030114 53.14043986 -24.79714998 53.18417524 -27.3125 53.125 C-27.3125 51.805 -27.3125 50.485 -27.3125 49.125 C-27.869375 49.54652344 -28.42625 49.96804687 -29 50.40234375 C-34.23695997 54.16198562 -37.85355639 55.89012932 -44.3125 56.125 C-40.93429979 52.41240941 -37.12468975 49.87867609 -32.9375 47.1875 C-28.12374639 44.08540978 -23.64652077 40.87533686 -19.3125 37.125 C-19.8075 36.50625 -20.3025 35.8875 -20.8125 35.25 C-22.3125 33.125 -22.3125 33.125 -22.3125 31.125 C-22.9725 31.125 -23.6325 31.125 -24.3125 31.125 C-23.15552241 28.81104481 -21.98318095 26.55502472 -20.6875 24.3125 C-19.12149094 20.68220626 -19.07772405 18.03793257 -19.3125 14.125 C-21.94841539 12.54345077 -23.62574972 12.09652275 -26.75 11.8125 C-31.12483211 10.96823415 -32.45757506 9.45574577 -35.3125 6.125 C-36.30538283 5.11793313 -37.30384248 4.11626687 -38.3125 3.125 C-36.10540017 2.47496375 -33.89676108 1.83015255 -31.6875 1.1875 C-30.45773438 0.82785156 -29.22796875 0.46820313 -27.9609375 0.09765625 C-19.51111667 -2.15502618 -8.01303035 -4.47200241 0 0 Z " fill="#F3F3F3" transform="translate(165.3125,36.875)"/>
<path d="M0 0 C1.57938354 0.31807617 1.57938354 0.31807617 3.19067383 0.64257812 C9.27166758 2.0378613 15.3280548 3.50292593 21.37109375 5.0546875 C22.66525122 5.38325934 23.95952161 5.71138671 25.25390625 6.0390625 C28.37743441 6.8315995 31.49976462 7.62854209 34.62109375 8.4296875 C34.62109375 8.7596875 34.62109375 9.0896875 34.62109375 9.4296875 C28.02038027 10.71794592 21.41828615 11.99893621 14.81518555 13.27490234 C12.56941871 13.70975518 10.32397225 14.14626598 8.07885742 14.58447266 C4.85027696 15.21433507 1.62058837 15.83821075 -1.609375 16.4609375 C-3.1127668 16.75623352 -3.1127668 16.75623352 -4.64653015 17.05749512 C-5.58712784 17.23768188 -6.52772552 17.41786865 -7.49682617 17.60351562 C-8.32067307 17.76339966 -9.14451996 17.92328369 -9.99333191 18.0880127 C-12.48670739 18.44512736 -14.86355623 18.48886274 -17.37890625 18.4296875 C-17.37890625 17.1096875 -17.37890625 15.7896875 -17.37890625 14.4296875 C-17.93578125 14.85121094 -18.49265625 15.27273437 -19.06640625 15.70703125 C-24.30336622 19.46667312 -27.91996264 21.19481682 -34.37890625 21.4296875 C-31.05837174 17.79211703 -27.3661725 15.31162034 -23.25390625 12.6796875 C-18.51199451 9.63673728 -14.31857005 6.54512872 -10.19140625 2.6796875 C-6.49524107 -0.31902668 -4.66417685 -0.96135921 0 0 Z " fill="#999999" transform="translate(155.37890625,71.5703125)"/>
<path d="M0 0 C10.11535361 5.61964089 10.11535361 5.61964089 13.53515625 8.15625 C14.28216797 8.70410156 15.02917969 9.25195312 15.79882812 9.81640625 C16.54583984 10.37199219 17.29285156 10.92757812 18.0625 11.5 C23.57653864 15.57991529 29.12257797 19.45815615 35 23 C31.02637224 24.32454259 29.13058999 23.35667962 25.14453125 22.12890625 C23.93385986 21.76095947 22.72318848 21.3930127 21.47583008 21.01391602 C19.93693115 20.53494873 18.39803223 20.05598145 16.8125 19.5625 C11.924375 18.056875 7.03625 16.55125 2 15 C1.67 28.2 1.34 41.4 1 55 C0.67 55 0.34 55 0 55 C0 36.85 0 18.7 0 0 Z " fill="#C0C0C0" transform="translate(190,81)"/>
<path d="M0 0 C0.66 0 1.32 0 2 0 C3.17767455 2.72487453 4.34229476 5.45415345 5.5 8.1875 C5.83386719 8.95642578 6.16773438 9.72535156 6.51171875 10.51757812 C8.1707236 14.46194679 9.4904688 17.62957264 9 22 C-2.52164009 25.44419134 -2.52164009 25.44419134 -8 25 C-7.40221436 19.36587037 -5.94103952 14.43539114 -4 9.125 C-3.72671875 8.35414062 -3.4534375 7.58328125 -3.171875 6.7890625 C-1.14466003 1.14466003 -1.14466003 1.14466003 0 0 Z " fill="#F5F5F5" transform="translate(143,118)"/>
<path d="M0 0 C2.475 0.99 2.475 0.99 5 2 C-3.36416198 13.31621915 -16.76765302 20.50203355 -29 27 C-29.85722656 27.45632812 -30.71445313 27.91265625 -31.59765625 28.3828125 C-36.63008056 30.85154895 -40.40468276 31.40693216 -46 31 C-46 30.01 -46 29.02 -46 28 C-45.23558594 27.731875 -44.47117187 27.46375 -43.68359375 27.1875 C-27.29874203 21.19352296 -11.96828033 12.96563702 0 0 Z " fill="#9A9A9A" transform="translate(135,66)"/>
<path d="M0 0 C-1.90865882 1.82162878 -3.82606299 3.6321312 -5.75 5.4375 C-6.28882812 5.95376953 -6.82765625 6.47003906 -7.3828125 7.00195312 C-12.20471808 11.50043821 -12.20471808 11.50043821 -16 12 C-18.47363281 11.65454102 -18.47363281 11.65454102 -21.203125 11.00390625 C-22.1828125 10.77509766 -23.1625 10.54628906 -24.171875 10.31054688 C-25.18765625 10.06369141 -26.2034375 9.81683594 -27.25 9.5625 C-28.28125 9.31951172 -29.3125 9.07652344 -30.375 8.82617188 C-32.91871633 8.22557219 -35.46011941 7.61658359 -38 7 C-34.58248181 4.72165454 -32.0866668 4.24748417 -28.06640625 3.45703125 C-27.39206039 3.3243132 -26.71771454 3.19159515 -26.02293396 3.05485535 C-24.59888059 2.77671534 -23.17413887 2.50207973 -21.7487793 2.23071289 C-19.57166903 1.81425394 -17.3982354 1.38149878 -15.22460938 0.94726562 C-13.83873381 0.67869409 -12.45267156 0.41108376 -11.06640625 0.14453125 C-9.80771729 -0.09934326 -8.54902832 -0.34321777 -7.25219727 -0.59448242 C-4.36249963 -0.9547998 -2.69086054 -0.98688775 0 0 Z " fill="#949494" transform="translate(65,76)"/>
<path d="M0 0 C1.55611035 8.7108351 1.55611035 8.7108351 -0.375 13.1875 C-3.8964752 15.61899478 -6.07505011 15.10156393 -10.171875 14.39453125 C-10.77515625 14.26433594 -11.3784375 14.13414063 -12 14 C-12 10 -12 10 -10.609375 8.18359375 C-9.68898437 7.31927734 -9.68898437 7.31927734 -8.75 6.4375 C-8.11320312 5.83679688 -7.47640625 5.23609375 -6.8203125 4.6171875 C-1.62318841 0 -1.62318841 0 0 0 Z " fill="#F4F4F4" transform="translate(66,75)"/>
<path d="M0 0 C1.65 0 3.3 0 5 0 C5.07347656 1.051875 5.07347656 1.051875 5.1484375 2.125 C5.60883942 7.96734159 6.40403951 13.36093962 8 19 C4.37 18.34 0.74 17.68 -3 17 C-1 12 -1 12 0 11 C0.07226502 9.14712498 0.0838122 7.29166122 0.0625 5.4375 C0.05347656 4.42558594 0.04445313 3.41367188 0.03515625 2.37109375 C0.02355469 1.58863281 0.01195313 0.80617188 0 0 Z " fill="#9B9B9B" transform="translate(66,74)"/>
<path d="M0 0 C1.8871875 0.061875 1.8871875 0.061875 3.8125 0.125 C2.8125 1.6875 2.8125 1.6875 0.8125 3.125 C-1.95364782 3.09226452 -4.44780547 2.61904328 -7.1875 2.125 C-4.09861478 0.06574319 -3.47814073 -0.1140374 0 0 Z " fill="#8C8C8C" transform="translate(34.1875,80.875)"/>
<path d="M0 0 C1.98 0.495 1.98 0.495 4 1 C3.67 2.32 3.34 3.64 3 5 C2.01 5 1.02 5 0 5 C-0.33 4.01 -0.66 3.02 -1 2 C-0.67 1.34 -0.34 0.68 0 0 Z " fill="#FBFBFB" transform="translate(63,81)"/>
<path d="M0 0 C0.66 0.33 1.32 0.66 2 1 C1.01 2.98 0.02 4.96 -1 7 C-1.99 6.67 -2.98 6.34 -4 6 C-1.125 1.125 -1.125 1.125 0 0 Z " fill="#B9B9B9" transform="translate(4,109)"/>
</svg>
